<mxfile host="app.diagrams.net" modified="2023-06-07T02:44:53.228Z" agent="Mozilla/5.0 (Windows NT 10.0; Win64; x64) AppleWebKit/537.36 (KHTML, like Gecko) Chrome/114.0.0.0 Safari/537.36" etag="OtFsuZiIgMVQGydgzs8E" version="21.3.7" type="github">
  <diagram name="第 1 页" id="O_QHGvnCZH730tNBmOar">
    <mxGraphModel dx="1434" dy="796" grid="1" gridSize="10" guides="1" tooltips="1" connect="1" arrows="1" fold="1" page="1" pageScale="1" pageWidth="827" pageHeight="1169" math="0" shadow="0">
      <root>
        <mxCell id="0" />
        <mxCell id="1" parent="0" />
        <mxCell id="saVYviV8NVjSQybobaWA-1" value="" style="rounded=0;whiteSpace=wrap;html=1;" vertex="1" parent="1">
          <mxGeometry x="160" y="120" width="930" height="710" as="geometry" />
        </mxCell>
        <mxCell id="saVYviV8NVjSQybobaWA-2" value="" style="rounded=0;whiteSpace=wrap;html=1;" vertex="1" parent="1">
          <mxGeometry x="170" y="640" width="910" height="180" as="geometry" />
        </mxCell>
        <mxCell id="saVYviV8NVjSQybobaWA-3" value="" style="rounded=0;whiteSpace=wrap;html=1;" vertex="1" parent="1">
          <mxGeometry x="180" y="690" width="270" height="120" as="geometry" />
        </mxCell>
        <mxCell id="saVYviV8NVjSQybobaWA-4" value="ods_events_log" style="rounded=0;whiteSpace=wrap;html=1;" vertex="1" parent="1">
          <mxGeometry x="190" y="740" width="120" height="60" as="geometry" />
        </mxCell>
        <mxCell id="saVYviV8NVjSQybobaWA-5" value="ods_users_log" style="rounded=0;whiteSpace=wrap;html=1;" vertex="1" parent="1">
          <mxGeometry x="320" y="740" width="120" height="60" as="geometry" />
        </mxCell>
        <mxCell id="saVYviV8NVjSQybobaWA-6" value="埋点日志" style="text;html=1;strokeColor=none;fillColor=none;align=center;verticalAlign=middle;whiteSpace=wrap;rounded=0;" vertex="1" parent="1">
          <mxGeometry x="190" y="700" width="60" height="30" as="geometry" />
        </mxCell>
        <mxCell id="saVYviV8NVjSQybobaWA-7" value="" style="rounded=0;whiteSpace=wrap;html=1;" vertex="1" parent="1">
          <mxGeometry x="460" y="690" width="610" height="120" as="geometry" />
        </mxCell>
        <mxCell id="saVYviV8NVjSQybobaWA-8" value="ODS" style="text;html=1;strokeColor=none;fillColor=none;align=center;verticalAlign=middle;whiteSpace=wrap;rounded=0;" vertex="1" parent="1">
          <mxGeometry x="180" y="650" width="60" height="30" as="geometry" />
        </mxCell>
      </root>
    </mxGraphModel>
  </diagram>
</mxfile>
